<?xml version="1.0" encoding="iso-8859-1"?>
<!-- Generator: Adobe Illustrator 19.0.0, SVG Export Plug-In . SVG Version: 6.00 Build 0)  -->
<svg version="1.1" id="Layer_1" xmlns="http://www.w3.org/2000/svg" xmlns:xlink="http://www.w3.org/1999/xlink" x="0px" y="0px"
	 viewBox="0 0 451.277 451.277" style="enable-background:new 0 0 451.277 451.277;" xml:space="preserve">
<circle style="fill:#E05B49;" cx="225.638" cy="225.638" r="225.638"/>
<path style="opacity:0.1;enable-background:new    ;" d="M151.216,96.356v102.158l-4.795,4.842l-38.879,38.832
	c-1.975,2.022,2.68,8.462,7.945,13.351l35.729,35.729v63.654l95.359,95.358c104.998-9.664,189.11-91.239,202.727-195.042
	L290.418,96.356H151.216z"/>
<polygon style="fill:#FFFFFF;" points="290.409,96.343 151.207,96.343 151.207,354.909 344.19,354.909 344.19,150.124 "/>
<polygon style="fill:#E1E6E9;" points="290.409,150.124 344.19,150.124 290.409,96.343 "/>
<g>
	<polygon style="fill:#EBF0F3;" points="344.19,150.124 290.409,150.124 344.19,187.402 	"/>
	<rect x="166.989" y="204.293" style="fill:#EBF0F3;" width="161.423" height="4.7"/>
	<rect x="166.989" y="224.84" style="fill:#EBF0F3;" width="161.423" height="4.7"/>
	<rect x="166.989" y="245.386" style="fill:#EBF0F3;" width="161.423" height="4.7"/>
	<rect x="166.989" y="265.933" style="fill:#EBF0F3;" width="161.423" height="4.7"/>
	<rect x="166.989" y="286.474" style="fill:#EBF0F3;" width="161.423" height="4.7"/>
	<rect x="166.989" y="307.026" style="fill:#EBF0F3;" width="161.423" height="4.7"/>
	<rect x="166.989" y="327.573" style="fill:#EBF0F3;" width="131.779" height="4.7"/>
</g>
<path style="fill:#3A556A;" d="M157.05,213.96l-41.583,41.583c4.405,4.114,9.226,7.136,10.896,5.465l38.868-38.867L157.05,213.96z"
	/>
<g>
	<path style="fill:#64798A;" d="M146.427,203.337l-38.868,38.867c-1.99,1.99,2.663,8.441,7.907,13.339l41.583-41.583
		L146.427,203.337z"/>
	<path style="fill:#64798A;" d="M224.309,181.03v-40.1c0-0.481-0.081-0.959-0.243-1.413c-1.333-3.745-4.559-4.197-4.559-4.197
		c0.413-2.096-0.244-3.288-1.003-3.955c-0.613-0.538-1.422-0.811-2.245-0.811h-13.936c-8.003,0-14.551,6.42-14.551,14.266v36.209"/>
</g>
<path style="fill:#F6C358;" d="M216.733,173.838c-0.816-0.897-1.245-2.07-1.245-3.271v-0.958c-0.116,0.144-0.221,0.308-0.34,0.447
	c-2.543,2.977-5.686,4.761-9.102,4.761c-3.421,0-6.569-1.789-9.114-4.775c-0.119-0.139-0.224-0.303-0.34-0.448v0.972
	c0,1.202-0.429,2.374-1.245,3.271c-0.374,0.412-0.857,0.85-1.462,1.273c0.059,0.065,0.176,0.196,0.383,0.443
	c0.625,0.745,1.882,2.357,3.397,4.869c2.599,0.988,5.417,1.543,8.373,1.543c2.955,0,5.773-0.555,8.372-1.543
	c1.516-2.513,2.773-4.124,3.398-4.87c0.208-0.247,0.324-0.378,0.383-0.443C217.59,174.688,217.107,174.25,216.733,173.838z"/>
<path style="fill:#FCD462;" d="M206.046,175.047c3.416,0,6.559-1.784,9.102-4.761c0.119-0.139,0.224-0.303,0.34-0.447
	c3.53-4.387,5.817-11.131,5.817-18.749c-0.406-3.082-3.245-4.97-3.245-4.97l-9.125-2.982c-1.161,0.948-2.667,1.534-3.926,1.888
	c-1.189,0.335-2.421,0.497-3.658,0.497h-4.888c-5.374,0.497-5.678,5.567-5.678,5.567c0,7.609,2.282,14.347,5.806,18.735
	c0.116,0.144,0.221,0.309,0.34,0.448C199.478,173.257,202.625,175.047,206.046,175.047z"/>
<path style="fill:#44C4A1;" d="M199.522,184.091c2.267,4.344,4.726,10.301,6.517,18.033c1.795-7.751,4.262-13.72,6.534-18.067
	c-2.093,0.509-4.274,0.806-6.534,0.806C203.789,184.864,201.608,184.592,199.522,184.091z"/>
<path style="fill:#31978C;" d="M197.172,180.292c0.676,1.12,1.4,2.418,2.146,3.885c2.152,0.53,4.401,0.819,6.723,0.819
	c2.332,0,4.581-0.315,6.74-0.854c0.739-1.453,1.457-2.738,2.128-3.85c-2.753,1.046-5.738,1.634-8.868,1.634
	C202.909,181.926,199.925,181.338,197.172,180.292z"/>
<path style="fill:#3A556A;" d="M193.395,175.552l-5.283,2.797l-6.977,3.694c0,0-5.248,3.216-5.248,8.253v11.83h30.152l0-0.001"/>
<path style="fill:#EBF0F3;" d="M199.693,184.091c-0.704-1.385-1.387-2.611-2.026-3.668c-1.515-2.512-2.772-4.124-3.397-4.869
	c-0.208-0.247-0.324-0.378-0.383-0.443c-0.019-0.021-0.491,0.441-0.491,0.441l-2.451,2.857c-0.495,0.578-0.474,1.427,0.05,1.98
	l5.774,6.09l-0.965-0.022c-1.315-0.03-2.049,1.478-1.198,2.461l11.433,13.208l0-0.001
	C204.296,194.393,201.901,188.435,199.693,184.091z"/>
<path style="fill:#3A556A;" d="M206.039,202.127h0.001h30.152v-11.83c0-5.038-5.248-8.253-5.248-8.253l-6.977-3.694l-5.283-2.797"/>
<path style="fill:#EBF0F3;" d="M216.275,186.456l-0.965,0.022l5.774-6.09c0.524-0.553,0.546-1.402,0.05-1.98l-2.451-2.857
	c0,0-0.471-0.462-0.491-0.441c-0.059,0.065-0.176,0.195-0.383,0.443c-0.625,0.745-1.882,2.357-3.398,4.87
	c-0.633,1.05-1.311,2.263-2.009,3.635c-2.213,4.347-4.615,10.316-6.364,18.067l0,0.001l0,0.001l11.434-13.209
	C218.324,187.935,217.59,186.427,216.275,186.456z"/>
<path style="fill:#FCD462;" d="M242.003,198.491c19.862-19.862,19.861-52.064,0-71.926c-19.862-19.862-52.064-19.862-71.926,0
	c-18.38,18.38-19.715,47.311-4.076,67.268l-6.645,6.645c-3.23-2.484-6.164-3.905-7.323-2.745l-5.606,5.606l18.804,18.804
	l5.605-5.606c1.159-1.159-0.262-4.094-2.746-7.324l6.645-6.645C194.692,218.206,223.622,216.871,242.003,198.491z M178.752,189.815
	c-15.047-15.047-15.048-39.529-0.001-54.575c15.047-15.047,39.531-15.048,54.578-0.001c15.047,15.047,15.046,39.531-0.001,54.578
	C218.28,204.863,193.798,204.862,178.752,189.815z"/>
<g>
</g>
<g>
</g>
<g>
</g>
<g>
</g>
<g>
</g>
<g>
</g>
<g>
</g>
<g>
</g>
<g>
</g>
<g>
</g>
<g>
</g>
<g>
</g>
<g>
</g>
<g>
</g>
<g>
</g>
</svg>
