<?xml version="1.0" encoding="iso-8859-1"?>
<!-- Generator: Adobe Illustrator 19.0.0, SVG Export Plug-In . SVG Version: 6.00 Build 0)  -->
<svg version="1.1" id="Layer_1" xmlns="http://www.w3.org/2000/svg" xmlns:xlink="http://www.w3.org/1999/xlink" x="0px" y="0px"
	 viewBox="0 0 511.998 511.998" style="enable-background:new 0 0 511.998 511.998;" xml:space="preserve">
<path style="fill:#63A097;" d="M434.009,248.143c0,115.797-94.484,209.668-211.036,209.668S11.938,363.94,11.938,248.143
	S106.422,38.474,222.973,38.474C339.525,38.473,434.009,132.346,434.009,248.143z"/>
<path style="fill:#458081;" d="M434.009,248.143c0-2.686-0.068-5.356-0.169-8.018l0,0c-1.576-4.753-4.079-10.821-7.875-19.509
	c-7.557-17.312-20.193-31.474-40.523-20.28l-3.77-24.01c-9.408-13.159-33.322-7.37-38.31,8.753
	c-17.341,56.063-69.898,118.905-73.929,111.165c-5.125-9.829-11.495-19.21-19.721-24.84c-4.23-2.894-10.945-4.644-17.054-4.435
	c-14.105,0.492-17.539,16.863-18.463,30.123c-1.346,19.307-83.414,117.791-159.132,78.054l0,0l0,0
	c38.554,50.235,99.416,82.664,167.909,82.664C339.525,457.811,434.009,363.94,434.009,248.143z"/>
<path style="fill:#86BAA8;" d="M338.836,248.143c0,115.797-51.873,209.668-115.863,209.668S107.109,363.94,107.109,248.143
	S158.983,38.474,222.973,38.474C286.963,38.473,338.836,132.346,338.836,248.143z"/>
<path style="fill:#458081;" d="M415.944,163.168c11.605,25.976,18.065,54.723,18.065,84.973
	c0,115.797-94.484,209.668-211.036,209.668S11.938,363.938,11.938,248.141c0-30.25,6.46-58.999,18.065-84.973
	c56.03,19.952,122.143,31.485,192.972,31.485C293.801,194.655,359.916,183.12,415.944,163.168z"/>
<path style="fill:#397171;" d="M434.009,248.143c0-2.688-0.069-5.359-0.17-8.023c-1.576-4.752-4.079-10.82-7.873-19.504
	c-7.557-17.312-20.193-31.474-40.523-20.28l-3.77-24.01c-0.504-0.705-1.058-1.345-1.641-1.943
	c-11.612,3.167-23.562,5.988-35.81,8.452c-0.323,0.726-0.619,1.468-0.859,2.243c-17.341,56.063-69.898,118.905-73.929,111.165
	c-5.125-9.829-11.495-19.21-19.721-24.84c-4.23-2.894-10.945-4.644-17.054-4.435c-14.105,0.492-17.538,16.863-18.463,30.123
	c-1.346,19.307-83.414,117.791-159.132,78.054l0,0l0,0c38.554,50.237,99.416,82.665,167.909,82.665
	C339.525,457.811,434.009,363.94,434.009,248.143z"/>
<path style="fill:#63A097;" d="M112.48,184.896c-3.486,19.958-5.37,41.203-5.37,63.247c0,115.792,51.87,209.662,115.856,209.668
	c0.002,0,0.005,0,0.007,0s0.005,0,0.007,0c63.986-0.007,115.856-93.876,115.856-209.668c0-22.044-1.885-43.288-5.369-63.247
	c-34.867,6.322-71.975,9.758-110.494,9.758C184.453,194.655,147.346,191.218,112.48,184.896z"/>
<path style="fill:#4E8980;" d="M338.836,248.143c0-15.073-0.901-29.762-2.572-43.933c-21.489,50.219-63.252,98.902-66.828,92.035
	c-5.125-9.829-11.495-19.21-19.721-24.84c-4.23-2.894-10.945-4.644-17.054-4.435c-14.104,0.492-17.538,16.863-18.463,30.123
	c-0.887,12.728-36.856,59.854-82.957,79.119c21.188,49.625,54.392,81.595,91.727,81.599c0.002,0,0.005,0,0.007,0
	c0.002,0,0.005,0,0.007,0C286.966,457.804,338.836,363.935,338.836,248.143z"/>
<path style="fill:#004646;" d="M427.214,301.097c-23.615,90.158-106.102,156.715-204.241,156.715S42.348,391.255,18.732,301.097
	c60.779,15.968,130.333,25.038,204.241,25.038C296.881,326.134,366.435,317.065,427.214,301.097z"/>
<path style="fill:#003534;" d="M427.214,301.097c-60.779,15.968-130.333,25.036-204.241,25.036c-8.664,0-17.262-0.136-25.799-0.382
	c-28.163,33.74-86.826,78.41-142.11,49.396l0,0l0,0c38.553,50.238,99.416,82.665,167.909,82.665
	C321.112,457.811,403.598,391.255,427.214,301.097z"/>
<path style="fill:#2C5E5C;" d="M331.979,319.343c-34.818,4.423-71.341,6.79-109.006,6.79c-37.664,0-74.188-2.367-109.006-6.79
	c16.107,80.743,58.827,138.462,108.999,138.468c0.002,0,0.005,0,0.007,0s0.005,0,0.007,0
	C273.153,457.805,315.872,400.086,331.979,319.343z"/>
<path style="fill:#1F4745;" d="M331.979,319.343c-34.818,4.423-71.341,6.79-109.006,6.79c-8.664,0-17.259-0.139-25.796-0.386
	c-15.018,17.992-38.706,39.085-65.937,50.465c21.186,49.628,54.39,81.596,91.726,81.6c0.002,0,0.005,0,0.007,0s0.005,0,0.007,0
	C273.153,457.805,315.872,400.086,331.979,319.343z"/>
<path style="fill:#FFCE71;" d="M479.806,385.041c-4.665,13.863-9.289,27.421-13.745,40.21c-4.362,12.512-8.97,25.431-13.851,38.737
	c-2.153,5.893-7.254,9.465-12.637,9.469v0.068h-35.105h-32.873h-46.847c-7.571,0-13.709-6.831-13.709-15.258
	c0-0.218,0.005-0.439,0.014-0.655c-0.987-24.149-10.763-34.99-17.801-42.793c-2.671-2.964-5.07-5.624-7.143-8.65
	c-14.795-21.583-21.634-39.967-29.723-61.722c-3.467-9.321-7.186-19.322-12.45-31.602c-2.404-5.612-5.91-18.261-6.163-23.608
	c-0.642-13.276,4.358-29.631,18.463-30.123c6.109-0.21,12.824,1.541,17.054,4.435c8.228,5.63,14.598,15.012,19.721,24.84
	c4.032,7.741,5.781,17.412,8.576,24.112c1.058,2.544,2.098,4.716,3.106,6.54c9.12,16.493,27.781,7.522,33.729-11.277
	c7.159-22.629,15.324-54.266,16.147-75.316c0.884-22.418,1.739-44.063,12.373-55.224c11.637-12.222,24.238-14.246,38.31-8.753
	l3.77,24.01c20.329-11.196,32.966,2.968,40.523,20.28c7.552,17.287,9.986,24.209,10.19,31.014h15.797
	c2.639,0.288,8.76,3.748,9.465,5.041c6.708,12.236,11.935,24.377,13.941,36.826C503.278,313.957,494.425,341.579,479.806,385.041z"
	/>
<path style="fill:#FFA84D;" d="M478.85,244.855c-0.213,2.124-0.513,4.408-0.875,6.973c-0.36,2.553-0.857,5.425-1.517,8.776
	c-1.565,7.843-2.973,15.517-4.335,22.938c-3.287,17.913-6.393,34.834-10.943,49.933c-1.246,4.139-5.067,6.814-9.205,6.814
	c-0.912,0-1.84-0.129-2.76-0.403c-5.086-1.512-7.975-6.835-6.453-11.888c4.244-14.088,7.257-30.504,10.447-47.884
	c1.376-7.492,2.797-15.238,4.387-23.205c0.589-2.987,1.028-5.524,1.34-7.737c0.319-2.254,0.59-4.174,0.775-5.918
	c0.007,0.171,0.016,0.343,0.021,0.514h15.797C476.375,243.866,477.58,244.286,478.85,244.855z M424.637,189.181v-0.583
	c-4.618-0.43-9.799,0.677-15.617,3.88c-2.237,3-3.269,6.72-2.913,10.436c1.654,17.235,2.386,32.559-0.509,45.529
	c-6.241,27.963-11.788,52.373-16.443,67.743c-1.525,5.035,1.145,10.546,6.186,12.146c0.976,0.309,1.962,0.457,2.932,0.457
	c4.125,0,7.94-2.662,9.196-6.789c4.866-15.99,10.531-40.901,16.896-69.422C428.289,235.001,424.447,189.245,424.637,189.181z"/>
<path d="M439.971,485.465H324.298c-13.731,0-24.902-11.898-24.902-26.524c0-0.195,0.002-0.391,0.006-0.585
	c-0.91-20.157-8.437-28.538-15.083-35.937c-2.908-3.24-5.613-6.255-8.107-9.908c-15.674-22.954-22.861-42.354-31.184-64.817
	c-3.512-9.484-7.142-19.288-12.338-31.457c-2.588-6.066-6.735-20.208-7.089-27.707c-0.636-13.229,3.152-25.663,10.132-33.248
	c5.072-5.512,11.698-8.563,19.161-8.824c8.536-0.29,17.652,2.169,23.849,6.429c8.671,5.955,16.337,15.49,23.43,29.148
	c2.906,5.602,4.713,11.644,6.308,16.974c0.933,3.117,1.813,6.062,2.73,8.268c0.899,2.156,1.775,4.015,2.601,5.513
	c1.151,2.09,2.282,3.094,3.317,2.99c2.691-0.267,7.845-4.386,10.362-12.374c7.119-22.591,14.999-53.699,15.764-73.264
	c0.985-25.073,1.915-48.737,15.496-63.048c14.362-15.135,31.341-19.046,50.472-11.629c0.414,0.153,0.818,0.33,1.208,0.53
	c1.994,1.013,3.568,2.567,4.612,4.411c0.387,0.682,0.704,1.409,0.942,2.173c0.307,0.982,0.478,2.012,0.502,3.056
	c0.161,2.999,0.434,6.329,0.769,9.883c5.434-0.95,10.727-0.562,15.829,1.171c11.092,3.772,20.21,13.714,27.101,29.551
	c5.383,12.371,8.435,20.131,9.94,26.502c2.077-1.358,4.619-2.031,7.276-1.739c4.558,0.5,14.876,4.982,18.059,10.804
	c8.417,15.418,13.265,28.382,15.261,40.802c4.705,30.776-3.969,58.843-19.705,105.807c-5.098,15.208-9.639,28.546-13.881,40.774
	c-4.639,13.358-9.355,26.596-14.018,39.347c-3.52,9.672-11.835,16.121-21.464,16.799
	C441.104,485.421,440.543,485.465,439.971,485.465z M256.297,268.621c-0.211,0-0.422,0.004-0.634,0.011
	c-1.515,0.053-2.56,0.539-3.607,1.675c-2.911,3.163-4.637,10.063-4.296,17.169c0.173,3.658,3.212,15.084,5.332,20.053
	c5.409,12.666,9.302,23.183,12.738,32.46c8.138,21.96,14.564,39.307,28.703,60.012c1.665,2.439,3.791,4.808,6.253,7.552
	c7.843,8.73,19.641,21.866,20.799,50.276c0.012,0.293,0.012,0.587,0,0.88l-0.005,0.233c0,2.648,1.609,4.337,2.715,4.337h114.436
	c0.404-0.046,0.816-0.069,1.233-0.069c0.712,0,1.739-0.712,2.309-2.275c4.626-12.655,9.301-25.777,13.9-39.019
	c4.215-12.152,8.732-25.416,13.805-40.548c14.646-43.71,22.742-69.689,18.824-95.319c-1.496-9.31-5.268-19.469-11.823-31.766
	c-0.869-0.51-2.002-1.08-2.641-1.31c-1.313-0.221-2.538-0.668-3.639-1.295c-0.154,1.254-0.333,2.571-0.53,3.971
	c-0.355,2.524-0.831,5.284-1.454,8.428c-1.464,7.373-2.787,14.61-4.065,21.607c-3.109,17.013-6.046,33.083-10.369,47.484
	c-1.761,5.867-7.945,9.196-13.814,7.436c-5.868-1.761-9.198-7.945-7.436-13.814c3.969-13.223,6.798-28.705,9.793-45.095
	c1.293-7.08,2.632-14.402,4.128-21.936c0.541-2.729,0.949-5.086,1.246-7.202c1.797-12.741,1.944-13.782-8.358-37.461
	c-4.172-9.59-9.109-15.769-13.899-17.397c-0.815-0.277-2.823-0.959-6.37,0.037c2.107,20.489,3.738,42.295,0.07,58.782
	c-6.001,26.994-11.345,50.578-15.95,65.796c-1.774,5.863-7.965,9.177-13.831,7.404c-5.863-1.775-9.179-7.966-7.404-13.831
	c4.382-14.48,9.625-37.636,15.528-64.186c3.428-15.405,0.73-40.528-1.437-60.715c-0.626-5.83-1.23-11.451-1.675-16.636
	c-7.52-1.258-13.634,1.283-20.028,8.019c-7.832,8.255-8.639,28.778-9.419,48.626c-1.07,27.393-13.109,67.456-16.773,79.083
	c-4.839,15.356-16.625,26.52-29.329,27.783c-10.27,1.017-19.355-4.214-24.943-14.361c-1.229-2.229-2.424-4.748-3.653-7.698
	c-1.361-3.275-2.4-6.752-3.501-10.431c-1.378-4.606-2.803-9.369-4.744-13.111c-5.372-10.341-10.705-17.24-16.303-21.083
	C264.322,269.898,260.308,268.621,256.297,268.621z M221.579,469.692C99.4,469.692,0,370.292,0,248.113
	C0,126.017,99.276,26.669,221.342,26.536c0.158-0.004,0.314-0.004,0.472,0c68.997,0.073,132.805,31.435,175.088,86.069
	c3.75,4.845,2.861,11.812-1.983,15.563c-4.845,3.75-11.812,2.861-15.563-1.983c-23.939-30.933-55.54-53.576-91.149-66.135
	c17.975,19.961,32.84,48.083,43.005,81.368c1.79,5.86-1.51,12.061-7.37,13.849c-5.862,1.788-12.061-1.511-13.849-7.37
	c-16.742-54.819-45.688-91.032-77.322-97.962v133.279c22.904-0.439,45.766-2.177,68.118-5.181
	c6.071-0.818,11.657,3.445,12.473,9.517c0.816,6.072-3.445,11.657-9.517,12.473c-23.326,3.134-47.182,4.94-71.074,5.383v20.191
	c0,6.127-4.966,11.093-11.093,11.093c-6.127,0-11.093-4.966-11.093-11.093v-20.171c-29.957-0.493-59.396-3.083-88.139-7.741
	c-2.216,16.264-3.358,33.175-3.358,50.429c0,22.036,1.861,43.507,5.444,63.794c21.34,3.22,43.059,5.364,65.07,6.418
	c6.12,0.293,10.843,5.491,10.551,11.611c-0.293,6.12-5.507,10.838-11.611,10.551c-19.925-0.954-39.63-2.773-59.043-5.447
	c5.296,20.809,12.539,39.949,21.553,56.639c16.67,30.865,37.485,49.842,59.533,54.627v-37.997c0-6.127,4.966-11.093,11.093-11.093
	c6.127,0,11.093,4.966,11.093,11.093V447.2c4.331-0.238,8.652-0.615,12.927-1.128c6.085-0.727,11.606,3.61,12.336,9.693
	c0.73,6.083-3.61,11.606-9.693,12.336C239.441,469.156,230.469,469.692,221.579,469.692z M33.417,314.127
	c19.93,56.646,64.766,101.663,121.294,121.846c-8.419-9.412-16.233-20.704-23.28-33.751c-11.178-20.698-19.842-44.749-25.708-70.891
	C81.06,326.995,56.912,321.251,33.417,314.127z M26.334,288.684c0.394,0.083,0.788,0.189,1.18,0.317
	c23.904,7.842,48.552,14.175,73.799,18.97c-2.973-19.241-4.51-39.345-4.51-59.857c0-18.581,1.26-36.82,3.708-54.393
	c-22.045-4.436-43.646-10.118-64.717-17.031c-0.113-0.037-0.227-0.076-0.339-0.117c-8.566,22.214-13.268,46.343-13.268,71.541
	C22.187,262.011,23.615,275.58,26.334,288.684z M126.053,175.808c27.524,4.453,55.724,6.937,84.432,7.426V49.922
	c-22.049,4.786-42.863,23.762-59.533,54.627C139.864,125.08,131.456,149.319,126.053,175.808z M44.643,156.238
	c19.417,6.289,39.308,11.493,59.597,15.601c5.844-28.829,15.029-55.315,27.191-77.833c7.047-13.047,14.861-24.339,23.281-33.751
	C107.09,77.258,67.766,111.881,44.643,156.238z"/>
<g>
</g>
<g>
</g>
<g>
</g>
<g>
</g>
<g>
</g>
<g>
</g>
<g>
</g>
<g>
</g>
<g>
</g>
<g>
</g>
<g>
</g>
<g>
</g>
<g>
</g>
<g>
</g>
<g>
</g>
</svg>
